<mxfile host="app.diagrams.net" modified="2024-04-23T09:01:27.439Z" agent="Mozilla/5.0 (X11; Linux x86_64) AppleWebKit/537.36 (KHTML, like Gecko) Chrome/122.0.0.0 Safari/537.36" version="24.2.8" etag="CvGuorB2oT6PdKzkpXU_" type="github">
  <diagram name="第 1 页" id="iJOloe9h4fb-FLFsdx1a">
    <mxGraphModel>
      <root>
        <mxCell id="0" />
        <mxCell id="1" parent="0" />
      </root>
    </mxGraphModel>
  </diagram>
</mxfile>
